<svg width="119" height="29" viewBox="0 0 119 29" fill="none" xmlns="http://www.w3.org/2000/svg">
<path d="M5.068 28.016C3.82 28.016 2.788 27.62 1.972 26.828C1.18 26.06 0.784 24.872 0.784 23.264C0.784 22.088 1.012 20.936 1.468 19.808C1.924 18.68 2.536 17.672 3.304 16.784C4.072 15.872 4.924 15.152 5.86 14.624C6.82 14.096 7.792 13.832 8.776 13.832C9.784 13.832 10.504 14.084 10.936 14.588C11.392 15.092 11.62 15.68 11.62 16.352C11.62 17.024 11.452 17.684 11.116 18.332C10.804 18.956 10.372 19.268 9.82 19.268C9.364 19.268 8.992 19.04 8.704 18.584C8.944 18.416 9.196 18.104 9.46 17.648C9.724 17.192 9.856 16.604 9.856 15.884C9.856 15.692 9.808 15.548 9.712 15.452C9.616 15.332 9.436 15.272 9.172 15.272C8.572 15.272 7.936 15.548 7.264 16.1C6.616 16.628 6.004 17.324 5.428 18.188C4.876 19.028 4.42 19.928 4.06 20.888C3.724 21.824 3.556 22.688 3.556 23.48C3.556 24.152 3.724 24.776 4.06 25.352C4.42 25.904 5.104 26.18 6.112 26.18C7.024 26.18 7.972 25.916 8.956 25.388C9.94 24.86 10.864 24.128 11.728 23.192C12.592 22.232 13.288 21.092 13.816 19.772L14.536 20.42C13.96 21.884 13.156 23.192 12.124 24.344C11.116 25.472 9.988 26.36 8.74 27.008C7.516 27.68 6.292 28.016 5.068 28.016ZM14.6443 27.368C14.1163 27.368 13.7323 26.96 13.4923 26.144C13.2763 25.328 13.1683 24.38 13.1683 23.3C13.1683 22.196 13.3483 20.864 13.7083 19.304C14.0923 17.744 14.5963 16.1 15.2203 14.372C15.8683 12.644 16.5763 10.952 17.3443 9.296C18.1363 7.64 18.9403 6.14 19.7563 4.796C20.5963 3.428 21.3883 2.336 22.1323 1.52C22.9003 0.703999 23.5723 0.295998 24.1483 0.295998C24.6523 0.295998 25.0363 0.571998 25.3003 1.124C25.5643 1.676 25.6963 2.252 25.6963 2.852C25.6963 3.5 25.5403 4.304 25.2283 5.264C24.9403 6.2 24.5323 7.208 24.0043 8.288C23.4763 9.368 22.8523 10.436 22.1323 11.492C21.4363 12.524 20.6683 13.472 19.8283 14.336C19.0123 15.2 18.1603 15.896 17.2723 16.424C16.9603 17.24 16.7083 18.008 16.5163 18.728C16.3483 19.424 16.2283 20.084 16.1563 20.708C16.0843 21.332 16.0483 21.944 16.0483 22.544C16.0483 22.664 16.0483 22.796 16.0483 22.94C16.0723 23.06 16.0843 23.18 16.0843 23.3C16.1803 23.156 16.3363 22.784 16.5523 22.184C16.7683 21.584 17.0563 20.888 17.4163 20.096C17.8003 19.28 18.2683 18.488 18.8203 17.72C19.3723 16.928 20.0203 16.28 20.7643 15.776C21.5083 15.248 22.3603 14.984 23.3203 14.984C24.1363 14.984 24.7723 15.176 25.2283 15.56C25.6843 15.92 26.0083 16.376 26.2003 16.928C26.3923 17.456 26.4883 17.996 26.4883 18.548C26.4883 19.316 26.3563 20.036 26.0923 20.708C25.8523 21.38 25.6003 22.016 25.3363 22.616C25.0963 23.192 24.9763 23.744 24.9763 24.272C24.9763 24.704 25.0723 25.004 25.2643 25.172C25.4563 25.34 25.6843 25.424 25.9483 25.424C26.4763 25.424 27.0883 25.16 27.7843 24.632C28.5043 24.104 29.2123 23.408 29.9083 22.544C30.6283 21.656 31.2403 20.684 31.7443 19.628L32.3203 20.24C31.7683 21.44 31.1203 22.544 30.3763 23.552C29.6323 24.56 28.8163 25.364 27.9283 25.964C27.0403 26.564 26.0803 26.864 25.0483 26.864C24.1363 26.864 23.4403 26.624 22.9603 26.144C22.4803 25.664 22.2403 25.064 22.2403 24.344C22.2403 23.84 22.3243 23.288 22.4923 22.688C22.6843 22.064 22.8643 21.44 23.0323 20.816C23.2003 20.192 23.2843 19.628 23.2843 19.124C23.2843 18.548 23.1523 18.152 22.8883 17.936C22.6483 17.72 22.3483 17.612 21.9883 17.612C21.3883 17.612 20.8483 17.852 20.3683 18.332C19.8883 18.788 19.4563 19.388 19.0723 20.132C18.6883 20.876 18.3283 21.668 17.9923 22.508C17.6563 23.324 17.3203 24.104 16.9843 24.848C16.6483 25.592 16.2883 26.192 15.9043 26.648C15.5443 27.128 15.1243 27.368 14.6443 27.368ZM18.0283 14.12C18.6523 13.568 19.2523 12.908 19.8283 12.14C20.4043 11.372 20.9323 10.58 21.4123 9.764C21.9163 8.924 22.3483 8.12 22.7083 7.352C23.0923 6.56 23.3923 5.852 23.6083 5.228C23.8243 4.604 23.9443 4.124 23.9683 3.788C23.9683 3.764 23.9683 3.752 23.9683 3.752C23.9683 3.728 23.9683 3.704 23.9683 3.68C23.8243 3.68 23.5123 3.98 23.0323 4.58C22.5763 5.156 22.0363 5.948 21.4123 6.956C20.8123 7.94 20.2003 9.056 19.5763 10.304C18.9763 11.552 18.4603 12.824 18.0283 14.12ZM33.1533 27.152C32.0733 27.152 31.3293 26.792 30.9213 26.072C30.5373 25.376 30.3453 24.608 30.3453 23.768C30.3453 23 30.4653 22.22 30.7053 21.428C30.9453 20.612 31.2693 19.856 31.6773 19.16C32.1093 18.464 32.5773 17.912 33.0813 17.504C33.6093 17.072 34.1373 16.856 34.6653 16.856C34.8333 16.856 35.0253 16.892 35.2413 16.964C35.4813 17.012 35.6493 17.096 35.7453 17.216C35.4573 17.576 35.1573 18.02 34.8453 18.548C34.5573 19.076 34.2813 19.64 34.0173 20.24C33.7773 20.816 33.5853 21.404 33.4413 22.004C33.2973 22.604 33.2253 23.156 33.2253 23.66C33.2253 24.14 33.3093 24.536 33.4773 24.848C33.6693 25.16 33.9933 25.316 34.4493 25.316C34.9053 25.316 35.4453 25.064 36.0693 24.56C36.7173 24.032 37.3293 23.432 37.9053 22.76C37.1373 22.064 36.5853 21.308 36.2493 20.492C35.9133 19.652 35.7453 18.644 35.7453 17.468C35.7453 16.964 35.8653 16.388 36.1053 15.74C36.3693 15.092 36.7773 14.528 37.3293 14.048C37.9053 13.568 38.6733 13.328 39.6333 13.328C40.6653 13.328 41.3853 13.616 41.7933 14.192C42.2253 14.768 42.4413 15.452 42.4413 16.244C42.4413 17.132 42.2013 18.128 41.7213 19.232C41.2653 20.336 40.7133 21.38 40.0653 22.364C40.3533 22.508 40.6893 22.58 41.0733 22.58C41.4333 22.58 41.8653 22.496 42.3693 22.328C42.8733 22.16 43.3653 21.884 43.8453 21.5C44.3253 21.092 44.7093 20.552 44.9973 19.88L45.6453 20.348C45.1173 21.572 44.4093 22.472 43.5213 23.048C42.6573 23.6 41.8053 23.876 40.9653 23.876C40.6533 23.876 40.3413 23.852 40.0293 23.804C39.7173 23.732 39.4293 23.648 39.1653 23.552C38.3493 24.512 37.4133 25.352 36.3573 26.072C35.3013 26.792 34.2333 27.152 33.1533 27.152ZM38.8413 21.608C39.4173 20.768 39.9093 19.868 40.3173 18.908C40.7253 17.948 40.9293 17.06 40.9293 16.244C40.9293 15.692 40.8453 15.296 40.6773 15.056C40.5093 14.792 40.2573 14.66 39.9213 14.66C39.4653 14.66 38.9973 14.984 38.5173 15.632C38.0373 16.28 37.7973 17.096 37.7973 18.08C37.7973 18.584 37.8813 19.196 38.0493 19.916C38.2413 20.636 38.5053 21.2 38.8413 21.608ZM48.2399 28.016C46.9919 28.016 45.9599 27.62 45.1439 26.828C44.3519 26.06 43.9559 24.872 43.9559 23.264C43.9559 22.088 44.1839 20.936 44.6399 19.808C45.0959 18.68 45.7079 17.672 46.4759 16.784C47.2439 15.872 48.0959 15.152 49.0319 14.624C49.9919 14.096 50.9639 13.832 51.9479 13.832C52.9559 13.832 53.6759 14.084 54.1079 14.588C54.5639 15.092 54.7919 15.68 54.7919 16.352C54.7919 17.024 54.6239 17.684 54.2879 18.332C53.9759 18.956 53.5439 19.268 52.9919 19.268C52.5359 19.268 52.1639 19.04 51.8759 18.584C52.1159 18.416 52.3679 18.104 52.6319 17.648C52.8959 17.192 53.0279 16.604 53.0279 15.884C53.0279 15.692 52.9799 15.548 52.8839 15.452C52.7879 15.332 52.6079 15.272 52.3439 15.272C51.7439 15.272 51.1079 15.548 50.4359 16.1C49.7879 16.628 49.1759 17.324 48.5999 18.188C48.0479 19.028 47.5919 19.928 47.2319 20.888C46.8959 21.824 46.7279 22.688 46.7279 23.48C46.7279 24.152 46.8959 24.776 47.2319 25.352C47.5919 25.904 48.2759 26.18 49.2839 26.18C50.1959 26.18 51.1439 25.916 52.1279 25.388C53.1119 24.86 54.0359 24.128 54.8999 23.192C55.7639 22.232 56.4599 21.092 56.9879 19.772L57.7079 20.42C57.1319 21.884 56.3279 23.192 55.2959 24.344C54.2879 25.472 53.1599 26.36 51.9119 27.008C50.6879 27.68 49.4639 28.016 48.2399 28.016ZM58.5362 27.152C57.4562 27.152 56.7122 26.792 56.3042 26.072C55.9202 25.376 55.7282 24.608 55.7282 23.768C55.7282 23 55.8482 22.22 56.0882 21.428C56.3282 20.612 56.6522 19.856 57.0602 19.16C57.4922 18.464 57.9602 17.912 58.4642 17.504C58.9922 17.072 59.5202 16.856 60.0482 16.856C60.2162 16.856 60.4082 16.892 60.6242 16.964C60.8642 17.012 61.0322 17.096 61.1282 17.216C60.8402 17.576 60.5402 18.02 60.2282 18.548C59.9402 19.076 59.6642 19.64 59.4002 20.24C59.1602 20.816 58.9682 21.404 58.8242 22.004C58.6802 22.604 58.6082 23.156 58.6082 23.66C58.6082 24.14 58.6922 24.536 58.8602 24.848C59.0522 25.16 59.3762 25.316 59.8322 25.316C60.2882 25.316 60.8282 25.064 61.4522 24.56C62.1002 24.032 62.7122 23.432 63.2882 22.76C62.5202 22.064 61.9682 21.308 61.6322 20.492C61.2962 19.652 61.1282 18.644 61.1282 17.468C61.1282 16.964 61.2482 16.388 61.4882 15.74C61.7522 15.092 62.1602 14.528 62.7122 14.048C63.2882 13.568 64.0562 13.328 65.0162 13.328C66.0482 13.328 66.7682 13.616 67.1762 14.192C67.6082 14.768 67.8242 15.452 67.8242 16.244C67.8242 17.132 67.5842 18.128 67.1042 19.232C66.6482 20.336 66.0962 21.38 65.4482 22.364C65.7362 22.508 66.0722 22.58 66.4562 22.58C66.8162 22.58 67.2482 22.496 67.7522 22.328C68.2562 22.16 68.7482 21.884 69.2282 21.5C69.7082 21.092 70.0922 20.552 70.3802 19.88L71.0282 20.348C70.5002 21.572 69.7922 22.472 68.9042 23.048C68.0402 23.6 67.1882 23.876 66.3482 23.876C66.0362 23.876 65.7242 23.852 65.4122 23.804C65.1002 23.732 64.8122 23.648 64.5482 23.552C63.7322 24.512 62.7962 25.352 61.7402 26.072C60.6842 26.792 59.6162 27.152 58.5362 27.152ZM64.2242 21.608C64.8002 20.768 65.2922 19.868 65.7002 18.908C66.1082 17.948 66.3122 17.06 66.3122 16.244C66.3122 15.692 66.2282 15.296 66.0602 15.056C65.8922 14.792 65.6402 14.66 65.3042 14.66C64.8482 14.66 64.3802 14.984 63.9002 15.632C63.4202 16.28 63.1802 17.096 63.1802 18.08C63.1802 18.584 63.2642 19.196 63.4322 19.916C63.6242 20.636 63.8882 21.2 64.2242 21.608ZM72.6507 27.08C71.5227 27.08 70.7307 26.708 70.2747 25.964C69.8427 25.196 69.6267 24.296 69.6267 23.264C69.6267 22.088 69.8427 20.708 70.2747 19.124C70.7067 17.54 71.2707 15.884 71.9667 14.156C72.6867 12.404 73.4667 10.7 74.3067 9.044C75.1707 7.364 76.0347 5.852 76.8987 4.508C77.7627 3.164 78.5547 2.096 79.2747 1.304C80.0187 0.487999 80.6187 0.079999 81.0747 0.079999C81.3867 0.079999 81.6507 0.247999 81.8667 0.583999C82.0827 0.895999 82.2507 1.28 82.3707 1.736C82.5147 2.168 82.5867 2.576 82.5867 2.96C82.5867 3.608 82.4187 4.46 82.0827 5.516C81.7707 6.548 81.3147 7.688 80.7147 8.936C80.1387 10.184 79.4427 11.468 78.6267 12.788C77.8347 14.084 76.9467 15.32 75.9627 16.496C75.0027 17.672 73.9707 18.692 72.8667 19.556C72.7707 20.156 72.6747 20.756 72.5787 21.356C72.5067 21.932 72.4707 22.46 72.4707 22.94C72.4707 23.804 72.6147 24.44 72.9027 24.848C73.1907 25.232 73.5627 25.424 74.0187 25.424C74.6187 25.424 75.2307 25.148 75.8547 24.596C76.5027 24.02 77.1147 23.3 77.6907 22.436C78.2907 21.548 78.8067 20.636 79.2387 19.7L80.1027 20.168C79.0707 22.304 77.9187 23.996 76.6467 25.244C75.3747 26.468 74.0427 27.08 72.6507 27.08ZM73.5147 17.324C74.3307 16.436 75.0987 15.476 75.8187 14.444C76.5627 13.388 77.2347 12.32 77.8347 11.24C78.4587 10.16 78.9987 9.116 79.4547 8.108C79.9107 7.1 80.2587 6.2 80.4987 5.408C80.7627 4.592 80.9067 3.944 80.9307 3.464C80.9307 3.44 80.9307 3.428 80.9307 3.428C80.9307 3.404 80.9307 3.38 80.9307 3.356C80.7387 3.356 80.4267 3.632 79.9947 4.184C79.5867 4.712 79.0947 5.444 78.5187 6.38C77.9427 7.316 77.3427 8.384 76.7187 9.584C76.1187 10.784 75.5307 12.056 74.9547 13.4C74.4027 14.72 73.9227 16.028 73.5147 17.324ZM80.3949 27.692C79.6029 27.692 78.9189 27.428 78.3429 26.9C77.7429 26.372 77.4429 25.58 77.4429 24.524C77.4429 23.684 77.6349 22.772 78.0189 21.788C78.4029 20.804 78.9309 19.832 79.6029 18.872C80.2749 17.912 81.0429 17.048 81.9069 16.28C82.7709 15.488 83.6949 14.852 84.6789 14.372C85.6629 13.892 86.6469 13.652 87.6309 13.652C88.6629 13.652 89.5389 13.916 90.2589 14.444C90.9789 14.972 91.3389 15.668 91.3389 16.532C91.3389 17.18 91.1109 17.648 90.6549 17.936C90.1989 18.224 89.6589 18.308 89.0349 18.188C89.0829 17.972 89.1189 17.756 89.1429 17.54C89.1909 17.324 89.2149 17.096 89.2149 16.856C89.2149 16.376 89.1189 15.944 88.9269 15.56C88.7349 15.176 88.3269 14.984 87.7029 14.984C87.0309 14.984 86.3469 15.212 85.6509 15.668C84.9549 16.124 84.2829 16.724 83.6349 17.468C83.0109 18.188 82.4469 18.992 81.9429 19.88C81.4389 20.744 81.0429 21.596 80.7549 22.436C80.4669 23.276 80.3229 24.032 80.3229 24.704C80.3229 25.472 80.5989 25.856 81.1509 25.856C81.7029 25.856 82.3149 25.592 82.9869 25.064C83.6589 24.512 84.3309 23.828 85.0029 23.012C85.6989 22.196 86.3589 21.368 86.9829 20.528C87.6069 19.664 88.1469 18.932 88.6029 18.332C88.6749 18.212 88.7709 18.152 88.8909 18.152C88.9869 18.176 89.1669 18.236 89.4309 18.332C89.7189 18.404 89.9829 18.524 90.2229 18.692C90.4629 18.86 90.5829 19.076 90.5829 19.34C90.5829 19.58 90.4749 19.892 90.2589 20.276C90.0669 20.636 89.8269 21.044 89.5389 21.5C89.2749 21.932 89.0349 22.376 88.8189 22.832C88.6269 23.264 88.5309 23.684 88.5309 24.092C88.5309 24.404 88.6149 24.704 88.7829 24.992C88.9509 25.256 89.2269 25.388 89.6109 25.388C90.1869 25.388 90.9909 24.968 92.0229 24.128C93.0789 23.264 94.1469 21.812 95.2269 19.772L95.9109 20.456C95.3349 21.752 94.6389 22.904 93.8229 23.912C93.0309 24.896 92.1909 25.664 91.3029 26.216C90.4149 26.792 89.5149 27.08 88.6029 27.08C87.6189 27.08 86.8869 26.768 86.4069 26.144C85.9269 25.52 85.6629 24.848 85.6149 24.128C85.6149 24.08 85.6149 24.044 85.6149 24.02C85.6149 23.996 85.6149 23.972 85.6149 23.948C84.6549 25.1 83.7669 26.012 82.9509 26.684C82.1589 27.356 81.3069 27.692 80.3949 27.692ZM97.651 27.656C96.595 27.656 95.743 27.344 95.095 26.72C94.447 26.096 94.123 25.148 94.123 23.876C94.123 22.892 94.303 21.668 94.663 20.204C95.047 18.74 95.527 17.228 96.103 15.668C95.935 15.62 95.731 15.584 95.491 15.56C95.275 15.512 95.059 15.44 94.843 15.344V14.228C95.227 14.276 95.539 14.312 95.779 14.336C96.043 14.36 96.307 14.384 96.571 14.408C97.075 13.136 97.615 11.912 98.191 10.736C98.791 9.536 99.379 8.468 99.955 7.532C100.555 6.596 101.119 5.864 101.647 5.336C102.175 4.784 102.643 4.508 103.051 4.508C103.291 4.508 103.519 4.604 103.735 4.796C103.951 4.964 104.059 5.216 104.059 5.552C104.059 6.032 103.807 6.716 103.303 7.604C102.823 8.492 102.223 9.536 101.503 10.736C100.783 11.912 100.087 13.172 99.415 14.516C99.607 14.516 99.799 14.516 99.991 14.516C100.183 14.516 100.363 14.516 100.531 14.516C101.587 14.516 102.535 14.504 103.375 14.48C104.239 14.432 105.115 14.36 106.003 14.264V15.452C104.683 15.572 103.471 15.668 102.367 15.74C101.263 15.812 100.207 15.86 99.199 15.884C99.127 15.884 99.055 15.884 98.983 15.884C98.911 15.884 98.839 15.884 98.767 15.884C98.263 17.06 97.819 18.272 97.435 19.52C97.075 20.744 96.895 21.944 96.895 23.12C96.895 24.104 97.051 24.8 97.363 25.208C97.675 25.616 98.167 25.82 98.839 25.82C100.039 25.82 101.263 25.28 102.511 24.2C103.783 23.096 104.887 21.608 105.823 19.736L106.327 20.096C105.703 21.512 104.923 22.796 103.987 23.948C103.075 25.1 102.079 26 100.999 26.648C99.919 27.32 98.803 27.656 97.651 27.656ZM108.922 27.584C107.386 27.584 106.198 27.164 105.358 26.324C104.542 25.508 104.134 24.476 104.134 23.228C104.134 22.172 104.398 21.056 104.926 19.88C105.478 18.68 106.21 17.564 107.122 16.532C108.034 15.476 109.042 14.624 110.146 13.976C111.25 13.328 112.354 13.004 113.458 13.004C114.082 13.004 114.67 13.172 115.222 13.508C115.798 13.82 116.086 14.456 116.086 15.416C116.086 16.328 115.822 17.18 115.294 17.972C114.766 18.764 114.058 19.472 113.17 20.096C112.282 20.72 111.298 21.236 110.218 21.644C109.162 22.028 108.094 22.28 107.014 22.4C106.99 22.496 106.966 22.604 106.942 22.724C106.942 22.82 106.942 22.988 106.942 23.228C106.942 23.348 106.954 23.564 106.978 23.876C107.026 24.164 107.134 24.476 107.302 24.812C107.47 25.148 107.746 25.436 108.13 25.676C108.514 25.916 109.042 26.036 109.714 26.036C110.722 26.036 111.73 25.76 112.738 25.208C113.77 24.632 114.73 23.876 115.618 22.94C116.53 22.004 117.286 20.96 117.886 19.808L118.606 20.384C117.958 21.824 117.118 23.084 116.086 24.164C115.078 25.244 113.95 26.084 112.702 26.684C111.478 27.284 110.218 27.584 108.922 27.584ZM107.41 21.068C108.034 20.996 108.73 20.78 109.498 20.42C110.266 20.06 110.998 19.604 111.694 19.052C112.414 18.5 113.002 17.9 113.458 17.252C113.914 16.58 114.142 15.908 114.142 15.236C114.142 14.972 114.094 14.792 113.998 14.696C113.902 14.6 113.746 14.552 113.53 14.552C112.978 14.552 112.402 14.756 111.802 15.164C111.202 15.548 110.614 16.064 110.038 16.712C109.462 17.336 108.946 18.032 108.49 18.8C108.034 19.568 107.674 20.324 107.41 21.068Z" fill="white"/>
</svg>
